<?xml version="1.0" standalone="no"?>
<!DOCTYPE svg PUBLIC "-//W3C//DTD SVG 20010904//EN"
 "http://www.w3.org/TR/2001/REC-SVG-20010904/DTD/svg10.dtd">
<svg version="1.0" xmlns="http://www.w3.org/2000/svg"
 width="835.000000pt" height="835.000000pt" viewBox="0 0 835.000000 835.000000"
 preserveAspectRatio="xMidYMid meet">
<metadata>
Created by potrace 1.11, written by Peter Selinger 2001-2013
</metadata>
<g transform="translate(0.000000,835.000000) scale(0.100000,-0.100000)"
fill="#000000" stroke="none">
<path d="M3880 8334 c-584 -53 -1054 -179 -1535 -414 -1202 -587 -2055 -1725
-2279 -3040 -71 -416 -75 -918 -11 -1338 176 -1162 854 -2213 1841 -2855 473
-307 985 -511 1534 -611 263 -48 414 -60 730 -61 312 0 439 9 695 51 1242 203
2335 972 2956 2080 540 963 673 2123 364 3189 -409 1413 -1537 2507 -2964
2876 -167 43 -364 80 -561 105 -120 15 -662 27 -770 18z m-157 -2348 c-344
-352 -609 -680 -899 -1111 -59 -88 -104 -145 -113 -144 -11 0 -12 2 -3 6 10 4
10 8 1 19 -9 11 -9 14 0 14 8 0 9 5 3 17 -7 11 -6 24 2 37 7 12 12 28 11 36 0
8 4 18 10 22 6 5 6 8 -2 8 -14 0 -7 58 10 78 8 10 7 16 -4 23 -10 6 -10 9 -1
9 6 0 12 7 12 16 0 9 5 12 13 8 9 -6 9 -5 0 7 -10 12 -8 21 6 42 10 16 16 39
14 52 -3 15 3 31 18 46 16 16 18 21 6 16 -15 -6 -16 -4 -6 16 7 12 16 25 22
28 5 4 10 18 10 33 0 15 4 23 10 19 6 -4 8 0 4 10 -4 12 -1 17 11 18 11 0 13
2 4 6 -10 4 -9 9 5 20 10 8 12 11 4 7 -9 -5 -12 -3 -7 4 4 7 15 12 24 13 10 0
12 3 5 6 -10 3 -9 8 2 20 8 8 15 23 15 34 0 10 5 19 12 19 6 0 9 3 5 6 -3 3 9
20 26 37 18 17 24 28 14 24 -15 -5 -16 -4 -7 13 6 10 20 26 32 34 12 9 19 16
16 16 -4 0 3 11 15 24 36 40 47 55 47 66 0 5 6 9 13 7 6 -1 11 6 11 16 -1 10
1 16 4 13 3 -4 14 6 24 21 10 16 18 23 18 18 0 -6 -6 -17 -12 -24 -11 -11 -10
-13 0 -7 6 4 19 20 27 36 8 16 24 31 35 35 11 3 20 15 20 26 0 17 10 24 32 20
4 0 12 8 18 19 6 12 16 17 22 14 8 -5 9 -1 5 10 -4 10 -3 15 3 11 5 -3 26 11
46 31 23 22 35 29 31 18 -6 -17 -5 -17 11 2 9 11 23 19 30 16 6 -2 15 3 18 12
3 8 17 22 31 31 18 12 24 13 19 4 -4 -8 1 -4 10 9 9 12 24 22 33 22 9 0 23 6
30 13 11 10 12 9 6 -3 -4 -8 6 -2 23 14 17 15 35 25 41 22 6 -4 11 1 11 11 1
17 2 17 15 -1 14 -18 15 -18 15 -2 0 9 5 14 10 11 6 -3 10 -1 10 4 0 6 5 11
11 11 5 0 7 -6 4 -12 -4 -7 0 -5 8 4 8 10 17 15 20 11 4 -3 13 0 21 6 8 7 21
9 27 5 9 -5 10 -2 6 9 -3 10 -2 17 3 17 6 0 10 -5 10 -11 0 -8 5 -7 16 2 9 7
28 13 42 14 17 0 26 5 24 13 -1 8 2 11 8 7 6 -4 -60 -80 -157 -179z m1034 32
c131 -120 363 -359 363 -373 0 -4 -27 -43 -59 -88 -304 -420 -480 -1033 -626
-2177 -32 -250 -33 -259 -46 -239 -5 8 -9 9 -9 3 0 -7 -7 -14 -14 -17 -11 -4
-13 -1 -9 10 5 12 3 14 -8 7 -26 -17 -79 -32 -79 -22 0 11 -33 6 -42 -7 -5 -6
-8 -5 -8 2 0 9 -7 10 -26 3 -18 -7 -23 -7 -18 1 5 8 -1 10 -19 7 -19 -4 -24
-1 -20 10 5 12 1 11 -25 -2 -29 -15 -32 -15 -41 2 -7 11 -10 13 -11 3 0 -9 -4
-10 -12 -4 -7 6 -34 10 -59 9 -39 -2 -46 1 -41 13 5 14 3 14 -11 2 -13 -10
-17 -10 -17 -1 0 9 -4 9 -17 -1 -11 -10 -14 -10 -9 -1 6 11 -11 17 -36 13 -5
0 -8 4 -8 10 0 5 -4 8 -8 5 -13 -8 -83 14 -77 24 3 4 -4 6 -15 3 -11 -3 -26 0
-33 6 -8 6 -17 8 -20 4 -4 -3 -7 2 -8 13 0 10 -3 14 -5 8 -3 -7 -14 -10 -24
-7 -11 3 -18 9 -15 13 3 5 -5 6 -17 2 -13 -3 -19 -1 -15 5 4 6 0 14 -9 17 -10
4 -13 2 -9 -7 4 -6 1 -5 -7 4 -7 9 -19 14 -26 12 -8 -3 -10 1 -6 12 4 9 2 15
-3 13 -15 -5 -83 25 -83 36 0 6 -5 4 -10 -4 -7 -12 -11 -10 -19 10 -5 14 -10
19 -10 12 -1 -11 -3 -11 -15 0 -37 35 -58 48 -68 42 -6 -4 -8 -3 -5 3 4 6 0
16 -8 23 -8 7 -15 9 -15 5 0 -5 -9 3 -21 16 -11 13 -27 23 -35 21 -9 -2 -12 3
-7 14 4 11 3 15 -5 10 -6 -3 -16 3 -22 14 -6 11 -15 18 -21 15 -5 -4 -9 1 -9
10 0 9 -13 21 -30 26 -16 6 -30 16 -30 21 0 6 7 4 17 -3 15 -13 15 -12 2 9 -8
12 -20 20 -27 17 -7 -3 -10 -1 -7 4 3 5 -4 13 -16 16 -11 4 -18 9 -16 12 7 7
-36 49 -46 45 -5 -1 -7 3 -4 10 2 7 -5 19 -17 26 -20 12 -20 13 4 6 l25 -6
-25 18 c-14 11 -29 18 -34 16 -5 -2 -6 4 -3 13 4 8 2 15 -4 15 -6 0 -8 7 -5
16 5 14 4 15 -8 5 -11 -9 -14 -9 -13 1 1 33 -4 52 -11 42 -5 -9 -11 -8 -20 2
-8 9 -9 14 -2 14 10 0 2 14 -27 43 -27 28 308 622 570 1011 235 349 450 610
746 907 232 231 363 344 386 332 7 -5 76 -65 152 -135z m783 -893 c125 -177
236 -354 232 -372 -2 -10 1 -12 10 -7 10 6 10 5 2 -7 -6 -8 -9 -23 -7 -34 5
-25 5 -29 0 -82 -3 -27 0 -40 6 -36 6 4 7 1 1 -8 -11 -18 -12 -30 -3 -50 5 -9
0 -27 -11 -44 -14 -21 -16 -33 -8 -42 8 -10 7 -13 -3 -13 -11 0 -11 -2 1 -10
9 -6 10 -10 3 -10 -6 0 -10 -9 -8 -20 2 -11 0 -22 -5 -25 -4 -3 -7 -13 -6 -23
2 -9 -2 -20 -7 -24 -7 -4 -6 -12 4 -24 8 -10 9 -15 3 -11 -7 4 -14 -2 -17 -13
-3 -11 0 -20 6 -20 7 0 4 -5 -5 -10 -9 -6 -15 -19 -13 -30 3 -14 0 -17 -13
-13 -15 6 -15 4 -4 -9 9 -12 10 -18 2 -23 -6 -4 -9 -12 -7 -18 2 -7 -6 -33
-19 -58 -13 -26 -20 -49 -17 -53 4 -3 1 -6 -6 -6 -7 0 -10 -4 -7 -9 3 -5 -1
-11 -9 -15 -8 -3 -15 -15 -15 -26 0 -11 -7 -23 -16 -27 -13 -5 -13 -7 -2 -14
10 -7 10 -9 1 -9 -7 0 -13 -6 -13 -14 0 -8 -7 -22 -16 -30 -8 -9 -12 -16 -7
-16 4 0 -2 -7 -14 -15 -14 -10 -20 -21 -16 -32 4 -11 2 -14 -5 -9 -7 4 -19 -9
-31 -33 -12 -22 -25 -43 -31 -46 -6 -4 -8 -11 -5 -16 4 -5 -1 -9 -9 -9 -10 0
-13 -6 -9 -17 6 -16 5 -17 -12 -3 -11 9 -16 10 -11 3 4 -7 2 -13 -3 -13 -6 0
-11 -6 -11 -14 0 -8 -12 -28 -26 -43 -14 -15 -22 -22 -18 -14 5 10 3 12 -5 7
-7 -5 -10 -14 -7 -21 3 -9 -2 -12 -15 -10 -15 3 -19 0 -15 -10 3 -9 0 -12 -10
-8 -8 3 -14 2 -13 -3 4 -15 -13 -44 -22 -39 -4 3 -20 -12 -34 -35 -14 -22 -28
-40 -31 -40 -4 0 -1 7 6 15 7 9 10 18 7 21 -3 4 -15 -9 -26 -27 -12 -19 -21
-27 -21 -19 0 9 -5 7 -16 -8 -8 -12 -22 -22 -30 -22 -8 0 -14 -5 -14 -11 0 -5
-4 -7 -10 -4 -5 3 -10 1 -10 -4 0 -6 -7 -11 -15 -11 -8 0 -20 -9 -27 -19 -6
-10 -17 -17 -24 -14 -6 2 -21 -7 -32 -21 -13 -17 -21 -22 -24 -13 -6 17 27
364 57 599 63 491 145 838 261 1103 51 115 135 259 145 248 4 -5 48 -66 99
-138z"/>
<path d="M2736 4923 c-6 -14 -5 -15 5 -6 7 7 10 15 7 18 -3 3 -9 -2 -12 -12z"/>
<path d="M5375 3640 c-3 -5 -1 -10 4 -10 6 0 11 5 11 10 0 6 -2 10 -4 10 -3 0
-8 -4 -11 -10z"/>
</g>
</svg>
